<svg id="Capa_1" data-name="Capa 1" xmlns="http://www.w3.org/2000/svg" width="47.62" height="38.15" viewBox="0 0 47.62 38.15">
  <path id="Trazado_2" data-name="Trazado 2" d="M.5,7.55V11c0,3.9,10.44,7,23.31,7s23.31-3.15,23.31-7V7.55" fill="none" stroke="#292929" stroke-linecap="round" stroke-miterlimit="10" stroke-width="1"/>
  <ellipse id="Elipse_7" data-name="Elipse 7" cx="23.31" cy="7.05" rx="23.31" ry="7.05" transform="translate(0.5 0.5)" fill="none" stroke="#292929" stroke-linecap="round" stroke-miterlimit="10" stroke-width="1"/>
  <path id="Trazado_3" data-name="Trazado 3" d="M21.48,18h4.67V32a2.33,2.33,0,0,1-2.33,2.33h0A2.33,2.33,0,0,1,21.48,32Z" fill="none" stroke="#292929" stroke-linecap="round" stroke-miterlimit="10" stroke-width="1"/>
  <path id="Trazado_4" data-name="Trazado 4" d="M26.15,31.23c3.44.4,6,1.66,6,3.14,0,1.81-3.71,3.28-8.29,3.28s-8.29-1.47-8.29-3.28c0-1.48,2.52-2.74,6-3.14" fill="none" stroke="#292929" stroke-linecap="round" stroke-miterlimit="10" stroke-width="1"/>
</svg>
